<mxfile host="Electron" agent="Mozilla/5.0 (Windows NT 10.0; Win64; x64) AppleWebKit/537.36 (KHTML, like Gecko) draw.io/26.0.9 Chrome/128.0.6613.186 Electron/32.2.5 Safari/537.36" version="26.0.9">
  <diagram name="Page-1" id="dRh6jTIBIImA6vXcn6LJ">
    <mxGraphModel dx="2261" dy="884" grid="1" gridSize="10" guides="1" tooltips="1" connect="1" arrows="1" fold="1" page="1" pageScale="1" pageWidth="827" pageHeight="1169" background="none" math="0" shadow="0">
      <root>
        <mxCell id="0" />
        <mxCell id="1" parent="0" />
        <mxCell id="pjDf02SLqKIFOyRl_HYM-1" value="" style="endArrow=classic;html=1;exitX=1;exitY=0.5;exitDx=0;exitDy=0;entryX=0;entryY=0.5;entryDx=0;entryDy=0;endSize=8;arcSize=0;rounded=0;" parent="1" source="pjDf02SLqKIFOyRl_HYM-14" target="pjDf02SLqKIFOyRl_HYM-10" edge="1">
          <mxGeometry width="50" height="50" relative="1" as="geometry">
            <mxPoint x="239" y="305" as="sourcePoint" />
            <mxPoint x="429" y="305" as="targetPoint" />
          </mxGeometry>
        </mxCell>
        <mxCell id="pjDf02SLqKIFOyRl_HYM-2" value="&lt;div&gt;dcat:distribution [0..*]&lt;/div&gt;" style="text;html=1;align=center;verticalAlign=middle;resizable=0;points=[];labelBackgroundColor=#ffffff;" parent="pjDf02SLqKIFOyRl_HYM-1" vertex="1" connectable="0">
          <mxGeometry x="-0.1269" relative="1" as="geometry">
            <mxPoint x="53" as="offset" />
          </mxGeometry>
        </mxCell>
        <mxCell id="pjDf02SLqKIFOyRl_HYM-3" value="" style="endArrow=classic;html=1;exitX=1;exitY=0.5;exitDx=0;exitDy=0;entryX=0;entryY=0.5;entryDx=0;entryDy=0;endSize=8;arcSize=0;rounded=0;" parent="1" source="pjDf02SLqKIFOyRl_HYM-14" target="pjDf02SLqKIFOyRl_HYM-11" edge="1">
          <mxGeometry width="50" height="50" relative="1" as="geometry">
            <mxPoint x="240" y="375" as="sourcePoint" />
            <mxPoint x="530" y="355" as="targetPoint" />
            <Array as="points">
              <mxPoint x="320" y="335" />
            </Array>
          </mxGeometry>
        </mxCell>
        <mxCell id="pjDf02SLqKIFOyRl_HYM-4" value="&lt;div&gt;dact:inSeries [0..*]&lt;/div&gt;" style="text;html=1;align=center;verticalAlign=middle;resizable=0;points=[];labelBackgroundColor=#ffffff;" parent="pjDf02SLqKIFOyRl_HYM-3" vertex="1" connectable="0">
          <mxGeometry x="-0.1269" relative="1" as="geometry">
            <mxPoint x="58" as="offset" />
          </mxGeometry>
        </mxCell>
        <mxCell id="pjDf02SLqKIFOyRl_HYM-5" value="" style="endArrow=classic;html=1;exitX=1;exitY=0.5;exitDx=0;exitDy=0;endSize=8;arcSize=0;rounded=0;entryX=0;entryY=0.5;entryDx=0;entryDy=0;" parent="1" source="pjDf02SLqKIFOyRl_HYM-14" target="pjDf02SLqKIFOyRl_HYM-97" edge="1">
          <mxGeometry width="50" height="50" relative="1" as="geometry">
            <mxPoint x="250" y="305" as="sourcePoint" />
            <mxPoint x="530" y="435" as="targetPoint" />
            <Array as="points">
              <mxPoint x="320" y="375" />
            </Array>
          </mxGeometry>
        </mxCell>
        <mxCell id="pjDf02SLqKIFOyRl_HYM-6" value="&lt;div&gt;dcterms:spatial [0..?]&lt;/div&gt;" style="text;html=1;align=center;verticalAlign=middle;resizable=0;points=[];labelBackgroundColor=#ffffff;" parent="pjDf02SLqKIFOyRl_HYM-5" vertex="1" connectable="0">
          <mxGeometry x="-0.1269" relative="1" as="geometry">
            <mxPoint x="72" as="offset" />
          </mxGeometry>
        </mxCell>
        <mxCell id="pjDf02SLqKIFOyRl_HYM-10" value="dcat:Distribution" style="rounded=0;whiteSpace=wrap;html=1;snapToPoint=1;points=[[0.1,0],[0.2,0],[0.3,0],[0.4,0],[0.5,0],[0.6,0],[0.7,0],[0.8,0],[0.9,0],[0,0.1],[0,0.3],[0,0.5],[0,0.7],[0,0.9],[0.1,1],[0.2,1],[0.3,1],[0.4,1],[0.5,1],[0.6,1],[0.7,1],[0.8,1],[0.9,1],[1,0.1],[1,0.3],[1,0.5],[1,0.7],[1,0.9]];fillColor=#CCFFE6;" parent="1" vertex="1">
          <mxGeometry x="530" y="280" width="140" height="30" as="geometry" />
        </mxCell>
        <mxCell id="pjDf02SLqKIFOyRl_HYM-11" value="dcat:DatasetSeries" style="rounded=0;whiteSpace=wrap;html=1;snapToPoint=1;points=[[0.1,0],[0.2,0],[0.3,0],[0.4,0],[0.5,0],[0.6,0],[0.7,0],[0.8,0],[0.9,0],[0,0.1],[0,0.3],[0,0.5],[0,0.7],[0,0.9],[0.1,1],[0.2,1],[0.3,1],[0.4,1],[0.5,1],[0.6,1],[0.7,1],[0.8,1],[0.9,1],[1,0.1],[1,0.3],[1,0.5],[1,0.7],[1,0.9]];fillColor=#FFE6CC;" parent="1" vertex="1">
          <mxGeometry x="530" y="320" width="140" height="30" as="geometry" />
        </mxCell>
        <mxCell id="pjDf02SLqKIFOyRl_HYM-19" value="" style="endArrow=classic;html=1;exitX=1;exitY=0.5;exitDx=0;exitDy=0;entryX=0;entryY=0.5;entryDx=0;entryDy=0;endSize=8;arcSize=0;rounded=0;" parent="1" source="pjDf02SLqKIFOyRl_HYM-14" target="pjDf02SLqKIFOyRl_HYM-21" edge="1">
          <mxGeometry width="50" height="50" relative="1" as="geometry">
            <mxPoint x="250" y="495" as="sourcePoint" />
            <mxPoint x="439" y="505" as="targetPoint" />
            <Array as="points">
              <mxPoint x="320" y="415" />
            </Array>
          </mxGeometry>
        </mxCell>
        <mxCell id="pjDf02SLqKIFOyRl_HYM-20" value="&lt;div&gt;dcterms:temporal [0..1]&lt;/div&gt;" style="text;html=1;align=center;verticalAlign=middle;resizable=0;points=[];labelBackgroundColor=#ffffff;" parent="pjDf02SLqKIFOyRl_HYM-19" vertex="1" connectable="0">
          <mxGeometry x="-0.1269" relative="1" as="geometry">
            <mxPoint x="89" as="offset" />
          </mxGeometry>
        </mxCell>
        <mxCell id="pjDf02SLqKIFOyRl_HYM-21" value="dcterms:PeriodOfTime" style="rounded=0;whiteSpace=wrap;html=1;snapToPoint=1;points=[[0.1,0],[0.2,0],[0.3,0],[0.4,0],[0.5,0],[0.6,0],[0.7,0],[0.8,0],[0.9,0],[0,0.1],[0,0.3],[0,0.5],[0,0.7],[0,0.9],[0.1,1],[0.2,1],[0.3,1],[0.4,1],[0.5,1],[0.6,1],[0.7,1],[0.8,1],[0.9,1],[1,0.1],[1,0.3],[1,0.5],[1,0.7],[1,0.9]];" parent="1" vertex="1">
          <mxGeometry x="530" y="400" width="140" height="30" as="geometry" />
        </mxCell>
        <mxCell id="pjDf02SLqKIFOyRl_HYM-38" value="" style="endArrow=classic;html=1;exitX=1;exitY=0.5;exitDx=0;exitDy=0;entryX=0;entryY=0.5;entryDx=0;entryDy=0;endSize=8;arcSize=0;rounded=0;" parent="1" source="pjDf02SLqKIFOyRl_HYM-14" target="pjDf02SLqKIFOyRl_HYM-40" edge="1">
          <mxGeometry width="50" height="50" relative="1" as="geometry">
            <mxPoint x="240" y="410" as="sourcePoint" />
            <mxPoint x="439" y="620" as="targetPoint" />
            <Array as="points">
              <mxPoint x="320" y="455" />
            </Array>
          </mxGeometry>
        </mxCell>
        <mxCell id="pjDf02SLqKIFOyRl_HYM-39" value="&lt;div&gt;prov:wasGeneratedBy [?..?]&lt;/div&gt;" style="text;html=1;align=center;verticalAlign=middle;resizable=0;points=[];labelBackgroundColor=#ffffff;" parent="pjDf02SLqKIFOyRl_HYM-38" vertex="1" connectable="0">
          <mxGeometry x="-0.1269" relative="1" as="geometry">
            <mxPoint x="104" y="8" as="offset" />
          </mxGeometry>
        </mxCell>
        <mxCell id="pjDf02SLqKIFOyRl_HYM-40" value="prov:Activity" style="rounded=0;whiteSpace=wrap;html=1;snapToPoint=1;points=[[0.1,0],[0.2,0],[0.3,0],[0.4,0],[0.5,0],[0.6,0],[0.7,0],[0.8,0],[0.9,0],[0,0.1],[0,0.3],[0,0.5],[0,0.7],[0,0.9],[0.1,1],[0.2,1],[0.3,1],[0.4,1],[0.5,1],[0.6,1],[0.7,1],[0.8,1],[0.9,1],[1,0.1],[1,0.3],[1,0.5],[1,0.7],[1,0.9]];fillColor=#FFCCE6;" parent="1" vertex="1">
          <mxGeometry x="530" y="440" width="140" height="30" as="geometry" />
        </mxCell>
        <mxCell id="pjDf02SLqKIFOyRl_HYM-94" value="" style="group" parent="1" vertex="1" connectable="0">
          <mxGeometry x="30" y="280" width="210" height="100" as="geometry" />
        </mxCell>
        <mxCell id="pjDf02SLqKIFOyRl_HYM-13" value="&lt;div&gt;&lt;span style=&quot;background-color: transparent; color: light-dark(rgb(0, 0, 0), rgb(255, 255, 255));&quot;&gt;[0..1] dcat:spatialResolutionInMeters:&lt;/span&gt;&lt;/div&gt;&lt;div&gt;&lt;span style=&quot;background-color: transparent; color: light-dark(rgb(0, 0, 0), rgb(255, 255, 255));&quot;&gt;rdfs:Literal typed as xsd:decimal&lt;/span&gt;&lt;br&gt;&lt;/div&gt;&lt;div&gt;&lt;div&gt;&lt;span style=&quot;background-color: transparent; color: light-dark(rgb(0, 0, 0), rgb(255, 255, 255));&quot;&gt;[0..1] dcat:temporalResolution:&lt;/span&gt;&lt;/div&gt;&lt;div&gt;&lt;span style=&quot;background-color: transparent; color: light-dark(rgb(0, 0, 0), rgb(255, 255, 255));&quot;&gt;rdfs:Literal typed as xsd:duration&lt;/span&gt;&lt;/div&gt;&lt;/div&gt;" style="rounded=0;whiteSpace=wrap;html=1;snapToPoint=1;points=[[0.1,0],[0.2,0],[0.3,0],[0.4,0],[0.5,0],[0.6,0],[0.7,0],[0.8,0],[0.9,0],[0,0.1],[0,0.3],[0,0.5],[0,0.7],[0,0.9],[0.1,1],[0.2,1],[0.3,1],[0.4,1],[0.5,1],[0.6,1],[0.7,1],[0.8,1],[0.9,1],[1,0.1],[1,0.3],[1,0.5],[1,0.7],[1,0.9]];" parent="pjDf02SLqKIFOyRl_HYM-94" vertex="1">
          <mxGeometry y="30" width="210" height="70" as="geometry" />
        </mxCell>
        <mxCell id="pjDf02SLqKIFOyRl_HYM-14" value="dcat:Dataset" style="rounded=0;whiteSpace=wrap;html=1;snapToPoint=1;points=[[0.1,0],[0.2,0],[0.3,0],[0.4,0],[0.5,0],[0.6,0],[0.7,0],[0.8,0],[0.9,0],[0,0.1],[0,0.3],[0,0.5],[0,0.7],[0,0.9],[0.1,1],[0.2,1],[0.3,1],[0.4,1],[0.5,1],[0.6,1],[0.7,1],[0.8,1],[0.9,1],[1,0.1],[1,0.3],[1,0.5],[1,0.7],[1,0.9]];fillColor=#FFFFCC;" parent="pjDf02SLqKIFOyRl_HYM-94" vertex="1">
          <mxGeometry width="210" height="30" as="geometry" />
        </mxCell>
        <mxCell id="pjDf02SLqKIFOyRl_HYM-97" value="dcterms:Location" style="rounded=0;whiteSpace=wrap;html=1;snapToPoint=1;points=[[0.1,0],[0.2,0],[0.3,0],[0.4,0],[0.5,0],[0.6,0],[0.7,0],[0.8,0],[0.9,0],[0,0.1],[0,0.3],[0,0.5],[0,0.7],[0,0.9],[0.1,1],[0.2,1],[0.3,1],[0.4,1],[0.5,1],[0.6,1],[0.7,1],[0.8,1],[0.9,1],[1,0.1],[1,0.3],[1,0.5],[1,0.7],[1,0.9]];" parent="1" vertex="1">
          <mxGeometry x="530" y="360" width="140" height="30" as="geometry" />
        </mxCell>
        <mxCell id="pjDf02SLqKIFOyRl_HYM-109" value="" style="rounded=1;whiteSpace=wrap;html=1;snapToPoint=1;points=[[0.1,0],[0.2,0],[0.3,0],[0.4,0],[0.5,0],[0.6,0],[0.7,0],[0.8,0],[0.9,0],[0,0.1],[0,0.3],[0,0.5],[0,0.7],[0,0.9],[0.1,1],[0.2,1],[0.3,1],[0.4,1],[0.5,1],[0.6,1],[0.7,1],[0.8,1],[0.9,1],[1,0.1],[1,0.3],[1,0.5],[1,0.7],[1,0.9]];fillColor=#E6E6E6;dashed=1;dashPattern=1 4;" parent="1" vertex="1">
          <mxGeometry x="-250" y="190" width="400" height="70" as="geometry" />
        </mxCell>
        <mxCell id="pjDf02SLqKIFOyRl_HYM-110" value="" style="rounded=1;whiteSpace=wrap;html=1;snapToPoint=1;points=[[0.1,0],[0.2,0],[0.3,0],[0.4,0],[0.5,0],[0.6,0],[0.7,0],[0.8,0],[0.9,0],[0,0.1],[0,0.3],[0,0.5],[0,0.7],[0,0.9],[0.1,1],[0.2,1],[0.3,1],[0.4,1],[0.5,1],[0.6,1],[0.7,1],[0.8,1],[0.9,1],[1,0.1],[1,0.3],[1,0.5],[1,0.7],[1,0.9]];fillColor=#E6E6E6;dashed=1;dashPattern=1 4;" parent="1" vertex="1">
          <mxGeometry x="-110" y="190" width="370" height="70" as="geometry" />
        </mxCell>
        <mxCell id="pjDf02SLqKIFOyRl_HYM-118" value="prov:Entity" style="rounded=0;whiteSpace=wrap;html=1;snapToPoint=1;points=[[0.1,0],[0.2,0],[0.3,0],[0.4,0],[0.5,0],[0.6,0],[0.7,0],[0.8,0],[0.9,0],[0,0.1],[0,0.3],[0,0.5],[0,0.7],[0,0.9],[0.1,1],[0.2,1],[0.3,1],[0.4,1],[0.5,1],[0.6,1],[0.7,1],[0.8,1],[0.9,1],[1,0.1],[1,0.3],[1,0.5],[1,0.7],[1,0.9]];fillColor=#E5CCFF;" parent="1" vertex="1">
          <mxGeometry x="-90" y="210" width="100" height="30" as="geometry" />
        </mxCell>
        <mxCell id="pjDf02SLqKIFOyRl_HYM-119" value="fabio:Expression" style="rounded=0;whiteSpace=wrap;html=1;snapToPoint=1;points=[[0.1,0],[0.2,0],[0.3,0],[0.4,0],[0.5,0],[0.6,0],[0.7,0],[0.8,0],[0.9,0],[0,0.1],[0,0.3],[0,0.5],[0,0.7],[0,0.9],[0.1,1],[0.2,1],[0.3,1],[0.4,1],[0.5,1],[0.6,1],[0.7,1],[0.8,1],[0.9,1],[1,0.1],[1,0.3],[1,0.5],[1,0.7],[1,0.9]];fillColor=#CCCCFF;" parent="1" vertex="1">
          <mxGeometry x="-230" y="210" width="100" height="30" as="geometry" />
        </mxCell>
        <mxCell id="pjDf02SLqKIFOyRl_HYM-113" value="dcat:Resource" style="rounded=0;whiteSpace=wrap;html=1;snapToPoint=1;points=[[0.1,0],[0.2,0],[0.3,0],[0.4,0],[0.5,0],[0.6,0],[0.7,0],[0.8,0],[0.9,0],[0,0.1],[0,0.3],[0,0.5],[0,0.7],[0,0.9],[0.1,1],[0.2,1],[0.3,1],[0.4,1],[0.5,1],[0.6,1],[0.7,1],[0.8,1],[0.9,1],[1,0.1],[1,0.3],[1,0.5],[1,0.7],[1,0.9]];fillColor=#CCFFCC;" parent="1" vertex="1">
          <mxGeometry x="30" y="210" width="210" height="30" as="geometry" />
        </mxCell>
        <mxCell id="pjDf02SLqKIFOyRl_HYM-120" value="" style="endArrow=block;html=1;fontColor=#000099;exitX=0.5;exitY=0;exitDx=0;exitDy=0;endFill=0;entryX=0.5;entryY=1;entryDx=0;entryDy=0;endSize=8;arcSize=0;rounded=0;" parent="1" source="pjDf02SLqKIFOyRl_HYM-14" target="pjDf02SLqKIFOyRl_HYM-113" edge="1">
          <mxGeometry width="50" height="50" relative="1" as="geometry">
            <mxPoint x="-80" y="415" as="sourcePoint" />
            <mxPoint x="-80" y="335" as="targetPoint" />
            <Array as="points" />
          </mxGeometry>
        </mxCell>
      </root>
    </mxGraphModel>
  </diagram>
</mxfile>
